<svg width="314" height="450" viewBox="0 0 314 450" fill="none" xmlns="http://www.w3.org/2000/svg">
<g clip-path="url(#clip0_100:2003)">
<rect width="314" height="450" rx="30" fill="#672CBC"/>
<g style="mix-blend-mode:soft-light" opacity="0.5">
<path d="M-16 147.07H90.3C90.3 147.07 82.7 123.77 69.9 127.17C57.1 130.47 57.6 133.37 57.6 133.37C57.6 133.37 53.8 113.47 36.7 116.27C19.6 119.07 15.8 132.87 15.8 132.87C15.8 132.87 4.90001 128.57 0.100006 132.87C-4.59999 137.17 -3.69998 139.47 -3.69998 139.47C-3.69998 139.47 -14.1 134.77 -16 147.07Z" fill="white"/>
</g>
<g style="mix-blend-mode:soft-light" opacity="0.8">
<path d="M265 104.216C263.8 100.816 261.1 94.9161 256.9 93.5161C250.9 91.5161 242 98.1161 242 98.1161C242 98.1161 237.7 82.6161 223.3 82.0161C208.9 81.4161 211.5 97.8161 211.5 97.8161C211.5 97.8161 207.8 96.7161 200.3 94.4161C192.8 92.1161 190.2 99.0161 190.2 99.0161C185.5 97.3161 183.6 101.816 183 104.216H265Z" fill="white"/>
</g>
<path d="M41.7 4C41.7 4 41.5 6.6 39 6.9C41.5 7.2 41.7 9.8 41.7 9.8C41.7 9.8 41.9 7.2 44.4 6.9C41.9 6.7 41.7 4 41.7 4Z" fill="#FFD08A"/>
<path d="M175.7 45C175.7 45 175.5 47.6 173 47.9C175.5 48.2 175.7 50.8 175.7 50.8C175.7 50.8 175.9 48.2 178.4 47.9C175.9 47.7 175.7 45 175.7 45Z" fill="#FFD08A"/>
<path d="M77.7 35C77.7 35 77.5 37.6 75 37.9C77.5 38.2 77.7 40.8 77.7 40.8C77.7 40.8 77.9 38.2 80.4 37.9C77.9 37.7 77.7 35 77.7 35Z" fill="#FFD08A"/>
<path d="M297.7 104C297.7 104 297.5 106.6 295 106.9C297.5 107.2 297.7 109.8 297.7 109.8C297.7 109.8 297.9 107.2 300.4 106.9C297.8 106.7 297.7 104 297.7 104Z" fill="#FFD08A"/>
<path d="M181.3 163.6C181.3 163.6 181.1 166.2 178.6 166.5C181.1 166.8 181.3 169.4 181.3 169.4C181.3 169.4 181.5 166.8 184 166.5C181.4 166.3 181.3 163.6 181.3 163.6Z" fill="#FFD08A"/>
<path d="M137.1 74C137.1 74 136.6 81 130 81.6C136.6 82.3 137.1 89.2 137.1 89.2C137.1 89.2 137.6 82.2 144.2 81.6C137.6 81 137.1 74 137.1 74Z" fill="#FFD08A"/>
<path d="M13.1 62.7C13.1 62.7 12.6 69.7 6 70.3C12.6 71 13.1 77.9 13.1 77.9C13.1 77.9 13.6 70.9 20.2 70.3C13.6 69.7 13.1 62.7 13.1 62.7Z" fill="#FFD08A"/>
<path d="M130.2 4C130.2 4 129.8 9.1 125 9.6C129.8 10.1 130.2 15.2 130.2 15.2C130.2 15.2 130.6 10.1 135.4 9.6C130.6 9 130.2 4 130.2 4Z" fill="#FFD08A"/>
<path d="M56.6 99C56.6 99 56.3 103.5 52 104C56.3 104.4 56.6 109 56.6 109C56.6 109 56.9 104.5 61.2 104C57 103.5 56.6 99 56.6 99Z" fill="#FFD08A"/>
<path d="M97.5 198.9C97.5 198.9 97.2 203.4 92.9 203.9C97.2 204.3 97.5 208.9 97.5 208.9C97.5 208.9 97.8 204.4 102.1 203.9C97.8 203.4 97.5 198.9 97.5 198.9Z" fill="#FFD08A"/>
<g style="mix-blend-mode:soft-light" opacity="0.5">
<path d="M235.8 172.5H342.1C342.1 172.5 334.5 149.2 321.7 152.6C308.9 155.9 309.4 158.8 309.4 158.8C309.4 158.8 305.6 138.9 288.5 141.7C271.4 144.5 267.6 158.3 267.6 158.3C267.6 158.3 256.7 154 251.9 158.3C247.2 162.6 248.1 164.9 248.1 164.9C248.1 164.9 237.7 160.2 235.8 172.5Z" fill="white"/>
</g>
<path opacity="0.25" d="M156.9 368.8C226.433 368.8 282.8 355.682 282.8 339.5C282.8 323.318 226.433 310.2 156.9 310.2C87.3674 310.2 31 323.318 31 339.5C31 355.682 87.3674 368.8 156.9 368.8Z" fill="#042030"/>
<path d="M255.5 198.1L156.9 231.8L58.2 198.1L11 266.7L156.9 316.6L302.7 266.7L255.5 198.1Z" fill="#4E2999"/>
<path opacity="0.45" d="M28.2 263.9L149.2 310.2L107.6 269C107.6 269 39.3 252.5 28.2 263.9Z" fill="#240F4F"/>
<path opacity="0.45" d="M285.6 263.9L164.6 310.2L206.2 269C206.1 269 274.4 252.5 285.6 263.9Z" fill="#240F4F"/>
<path d="M156.9 316.6L11 266.7V273.2L156.9 323.1L302.7 273.2V266.7L156.9 316.6Z" fill="#994EF8"/>
<path d="M79.2 346.6L96.1 302.3L150.5 320.9L79.2 346.6Z" fill="#3B1E77"/>
<path opacity="0.45" d="M83.9 333.8L150.5 320.9L96.1 302.3L83.9 333.8Z" fill="#3B1E77"/>
<path d="M156.9 318.6L79.2 346.6L85 352.7L156.9 327.1L228.7 352.7L234.6 346.6L156.9 318.6Z" fill="#994EF8"/>
<path d="M234.6 346.6L217.6 302.3L163.2 320.9L234.6 346.6Z" fill="#3B1E77"/>
<path opacity="0.45" d="M229.8 333.8L163.2 320.9L217.6 302.3L229.8 333.8Z" fill="#3B1E77"/>
<path d="M156.9 327.1C159.827 327.1 162.2 324.727 162.2 321.8C162.2 318.873 159.827 316.5 156.9 316.5C153.973 316.5 151.6 318.873 151.6 321.8C151.6 324.727 153.973 327.1 156.9 327.1Z" fill="white" fill-opacity="0.5"/>
<path d="M251.3 198.1L156.9 245.1L62.5 198.1C58.2 203.8 23.6 261.5 23.6 261.5C24 261.5 24.3 261.6 24.7 261.6C111.5 270.3 135.6 297.6 143.6 304.2C151.6 310.9 157 310.2 157 310.2C157 310.2 162.4 310.9 170.4 304.2C178.4 297.6 202.5 270.3 289.3 261.6C289.7 261.6 290 261.5 290.4 261.5C290.2 261.5 255.5 203.9 251.3 198.1Z" fill="#F5B304"/>
<path d="M290.2 261.5C289.8 261.5 289.5 261.6 289.1 261.6C202.3 270.3 178.2 297.6 170.2 304.2C162.2 310.9 156.8 310.2 156.8 310.2C156.8 310.2 151.4 310.9 143.4 304.2C135.4 297.6 111.3 270.3 24.5 261.6C24.1 261.6 23.8 261.5 23.4 261.5C22.7 262.6 23.4 263.4 23.4 263.4C111.1 271.9 134.4 299.3 142.4 306C150.4 312.6 156.7 312.1 156.7 312.1C156.7 312.1 163 312.6 171 306C179 299.4 202.3 272 290 263.4C290.2 263.4 290.9 262.6 290.2 261.5Z" fill="#994EF8"/>
<path d="M247.7 192.6C199.4 181 156.8 220.7 156.8 220.7C156.8 220.7 114.2 181 65.9 192.6C65.9 192.6 52.2 213.6 33.3 249.3C33.3 249.3 128.4 260 156.8 299.9C185.2 260 280.3 249.3 280.3 249.3C261.4 213.6 247.7 192.6 247.7 192.6Z" fill="#F5EFFB"/>
<path d="M280.3 249.3C280.3 249.3 185.2 260 156.8 299.9C128.5 260 33.4 249.3 33.4 249.3C33.4 249.3 33.4 252.5 28.1 258.8C28.1 258.8 114.4 265 145.8 300.8C153.2 309.2 156.8 308.2 156.8 308.2C156.8 308.2 160.5 309.2 167.8 300.8C199.1 265 285.5 258.8 285.5 258.8C280.3 252.4 280.3 249.3 280.3 249.3Z" fill="#DFCBF4"/>
<path d="M242.3 196.8C242.3 196.8 206.2 187.6 156.8 225.9C107.5 187.7 71.3 196.8 71.3 196.8L46.9 244.2C121.1 249.3 156.8 286.8 156.8 286.8C156.8 286.8 192.5 249.3 266.7 244.2L242.3 196.8ZM156.9 282.3C156.9 282.3 123.5 248.1 52.7 241.4L73.2 198.8C73.2 198.8 108.7 191.9 156.9 228.1C205.1 191.9 240.6 198.8 240.6 198.8L261.1 241.4C190.3 248.1 156.9 282.3 156.9 282.3Z" fill="#863ED5"/>
<path opacity="0.2" d="M166 261.594C179.333 251.76 221 230 249 233" stroke="#863ED5" stroke-width="3" stroke-linecap="round"/>
<path opacity="0.2" d="M166 234C177.833 224.735 208.6 206.581 237 208.088" stroke="#863ED5" stroke-width="3" stroke-linecap="round"/>
<path opacity="0.2" d="M166 248C178.833 238.022 212.2 218.472 243 220.095" stroke="#863ED5" stroke-width="3" stroke-linecap="round"/>
<path opacity="0.2" d="M149 261.594C135.667 251.76 94 230 66 233" stroke="#863ED5" stroke-width="3" stroke-linecap="round"/>
<path opacity="0.2" d="M149 234C137.167 224.735 106.4 206.581 78 208.088" stroke="#863ED5" stroke-width="3" stroke-linecap="round"/>
<path opacity="0.2" d="M149 248C136.167 238.022 102.8 218.472 72 220.095" stroke="#863ED5" stroke-width="3" stroke-linecap="round"/>
<path d="M156.9 220.7C156.9 220.7 157.9 217.2 159.8 218.2C159.8 218.2 158.6 274.9 160.6 297C161.1 302.5 165.9 310 167.8 312.8H165.3L164.6 315.1C164.6 315.1 157.2 302.6 156.9 297.7C155.4 275.7 156.2 226 156.9 220.7Z" fill="#54DAF5"/>
</g>
<defs>
<clipPath id="clip0_100:2003">
<rect width="314" height="450" fill="white"/>
</clipPath>
</defs>
</svg>
