<svg width="265" height="66" viewBox="0 0 265 66" fill="none" xmlns="http://www.w3.org/2000/svg">
<g style="mix-blend-mode:soft-light" opacity="0.5">
<path d="M-16 65.07H90.3C90.3 65.07 82.7 41.77 69.9 45.17C57.1 48.47 57.6 51.37 57.6 51.37C57.6 51.37 53.8 31.47 36.7 34.27C19.6 37.07 15.8 50.87 15.8 50.87C15.8 50.87 4.90001 46.57 0.100006 50.87C-4.59999 55.17 -3.69998 57.47 -3.69998 57.47C-3.69998 57.47 -14.1 52.77 -16 65.07Z" fill="white"/>
</g>
<g style="mix-blend-mode:soft-light" opacity="0.8">
<path d="M265 22.2161C263.8 18.8161 261.1 12.9161 256.9 11.5161C250.9 9.51607 242 16.1161 242 16.1161C242 16.1161 237.7 0.616071 223.3 0.0160709C208.9 -0.583929 211.5 15.8161 211.5 15.8161C211.5 15.8161 207.8 14.7161 200.3 12.4161C192.8 10.1161 190.2 17.0161 190.2 17.0161C185.5 15.3161 183.6 19.8161 183 22.2161H265Z" fill="white"/>
</g>
</svg>
